<?xml version="1.0" encoding="UTF-8" standalone="no"?>
<svg
   xmlns:dc="http://purl.org/dc/elements/1.1/"
   xmlns:cc="http://creativecommons.org/ns#"
   xmlns:rdf="http://www.w3.org/1999/02/22-rdf-syntax-ns#"
   xmlns:svg="http://www.w3.org/2000/svg"
   xmlns="http://www.w3.org/2000/svg"
   xmlns:sodipodi="http://sodipodi.sourceforge.net/DTD/sodipodi-0.dtd"
   xmlns:inkscape="http://www.inkscape.org/namespaces/inkscape"
   inkscape:version="1.0beta2 (f3d5b5a, 2020-03-13)"
   sodipodi:docname="36-user_dummy.svg"
   xml:space="preserve"
   style="enable-background:new 0 0 512 512;"
   viewBox="0 0 512 512"
   y="0px"
   x="0px"
   id="Layer_1"
   version="1.1"><style
   id="style872"></style><metadata
   id="metadata47"><rdf:RDF><cc:Work
       rdf:about=""><dc:format>image/svg+xml</dc:format><dc:type
         rdf:resource="http://purl.org/dc/dcmitype/StillImage" /></cc:Work></rdf:RDF></metadata><defs
   id="defs45" /><sodipodi:namedview
   inkscape:current-layer="g10"
   inkscape:window-maximized="1"
   inkscape:window-y="-8"
   inkscape:window-x="54"
   inkscape:cy="200.06473"
   inkscape:cx="372.19483"
   inkscape:zoom="1.3037281"
   showgrid="false"
   id="namedview43"
   inkscape:window-height="1417"
   inkscape:window-width="2498"
   inkscape:pageshadow="2"
   inkscape:pageopacity="0"
   guidetolerance="10"
   gridtolerance="10"
   objecttolerance="10"
   borderopacity="1"
   bordercolor="#666666"
   pagecolor="#ffffff" />
<g
   id="g10">
	
	
	
	<path
   sodipodi:nodetypes="ccsssssccsscscccccccccscccccccccccccsccsssccssccsc"
   inkscape:connector-curvature="0"
   style="stroke:#000000;stroke-width:0.1;stroke-miterlimit:4;stroke-dasharray:none;stroke-opacity:1;fill:#e2e2e2;fill-opacity:1"
   id="path8"
   d="M 419.46594,261.17578 421,210 h 15 c 8.284,0 15,-6.716 15,-15 C 451,87.477 363.523,0 256,0 148.477,0 61,87.477 61,195 c 0,8.284 6.716,15 15,15 h 15 v 44.2725 C 65.586311,257.34062 50.942808,268.916 50.942808,302 c 0,33.084 41.591254,48.49453 41.591254,48.49453 l 0.689,20.70984 C 100.82706,455.18137 170.075,512 256,512 c 85.925,0 158.24106,-76.76144 165.84506,-160.73844 27.47022,-4.06547 41.36401,-29.17356 42.28026,-48.49453 1.02911,-33.06799 -11.57538,-41.59125 -44.65938,-41.59125 z M 434.13056,179.23297 360.7,180 C 358.932,135.247 349.276,93.452 333.056,61.013 330.108,55.117 307.04119,24.315974 303.76519,19.226974 381.29019,29.353415 428.66356,118.81997 434.13056,179.23297 Z M 181.324,180 C 183.03,139.912 191.557,102.867 205.776,74.429 215.932,54.117 228.256,40.037 241,33.734 V 180 Z M 254.12532,19.160409 c 29.61768,-3.668404 58.81636,26.519249 68.97336,46.831249 14.219,28.438 19.67788,71.619252 21.38388,111.707252 l -89.59021,3.83515 z m -28.2488,-6.836715 c -3.276,5.088 -27.10984,38.958151 -30.05784,44.854151 C 179.59868,89.616845 170.70971,135.247 168.94171,180 l -94.907425,1.53406 C 97.910031,64.360762 172.89652,36.256694 225.87652,12.323694 Z M 61,302 c 0,-16.542 13.458,-30 30,-30 v 60 C 74.458,332 61,318.542 61,302 Z m 195.76703,196.87468 c -74.439,0 -158.75278,-58.72019 -150.34062,-153.40874 l -3.83516,-154.64172 306.05046,-1.53406 0.76704,156.94281 c 0.3638,74.43811 -78.20272,152.64171 -152.64172,152.64171 z M 421,332 v -60 c 16.542,0 30,13.458 30,30 0,16.542 -13.458,30 -30,30 z" />
</g>
<g
   id="g12">
</g>
<g
   id="g14">
</g>
<g
   id="g16">
</g>
<g
   id="g18">
</g>
<g
   id="g20">
</g>
<g
   id="g22">
</g>
<g
   id="g24">
</g>
<g
   id="g26">
</g>
<g
   id="g28">
</g>
<g
   id="g30">
</g>
<g
   id="g32">
</g>
<g
   id="g34">
</g>
<g
   id="g36">
</g>
<g
   id="g38">
</g>
<g
   id="g40">
</g>
</svg>
