<?xml version="1.0" encoding="UTF-8" standalone="no"?>
<svg
   xmlns:dc="http://purl.org/dc/elements/1.1/"
   xmlns:cc="http://creativecommons.org/ns#"
   xmlns:rdf="http://www.w3.org/1999/02/22-rdf-syntax-ns#"
   xmlns:svg="http://www.w3.org/2000/svg"
   xmlns="http://www.w3.org/2000/svg"
   xmlns:sodipodi="http://sodipodi.sourceforge.net/DTD/sodipodi-0.dtd"
   xmlns:inkscape="http://www.inkscape.org/namespaces/inkscape"
   inkscape:version="1.0beta2 (f3d5b5a, 2020-03-13)"
   height="132.12"
   width="151.90001"
   sodipodi:docname="Heaven_Logo_byFaratMaroon.svg"
   xml:space="preserve"
   viewBox="0 0 151.9 132.11999"
   y="0px"
   x="0px"
   id="Ebene_1"
   version="1.1"><metadata
   id="metadata56"><rdf:RDF><cc:Work
       rdf:about=""><dc:format>image/svg+xml</dc:format><dc:type
         rdf:resource="http://purl.org/dc/dcmitype/StillImage" /><dc:title></dc:title></cc:Work></rdf:RDF></metadata><defs
   id="defs54" /><sodipodi:namedview
   inkscape:current-layer="Ebene_1"
   inkscape:window-maximized="0"
   inkscape:window-y="0"
   inkscape:window-x="62"
   inkscape:cy="70.098297"
   inkscape:cx="101.67321"
   inkscape:zoom="1.3778522"
   fit-margin-bottom="0"
   fit-margin-right="0"
   fit-margin-left="0"
   fit-margin-top="0"
   showgrid="false"
   id="namedview52"
   inkscape:window-height="937"
   inkscape:window-width="1455"
   inkscape:pageshadow="2"
   inkscape:pageopacity="0"
   guidetolerance="10"
   gridtolerance="10"
   objecttolerance="10"
   borderopacity="1"
   bordercolor="#666666"
   pagecolor="#ffffff" />
<style
   id="style2"
   type="text/css">
	.st0{fill:none;}
	.st1{fill:#1DB1B4;}
	.st2{fill:url(#path3015-8_2_);}
	.st3{opacity:0.463;fill:#034455;enable-background:new    ;}
	.st4{fill:url(#path3015_2_);}
	.st5{fill:url(#path3017_2_);}
	.st6{fill:url(#path3015-1_2_);}
	.st7{fill:#3ABFF0;}
	.st8{fill:url(#path3015-1-7-4_2_);}
	.st9{fill:none;stroke:#1DB1B4;stroke-width:3;stroke-miterlimit:10;}
</style>

<g
   transform="translate(-200.17,-47.020004)"
   id="g49">
	<g
   id="g45">
		<rect
   id="rect6"
   height="83.32"
   width="17.459999"
   class="st1"
   y="71.980003"
   x="301.20001" />
		<g
   id="Wasser_Welle_1_">
			
				<linearGradient
   gradientTransform="matrix(2.3323,0,0,-2.3323,-1396.0282,998.4088)"
   y2="381.18991"
   x2="748.11871"
   y1="381.18991"
   x1="687.23901"
   gradientUnits="userSpaceOnUse"
   id="path3015-8_2_">
				<stop
   id="stop8"
   style="stop-color:#CDCCCC"
   offset="0" />
				<stop
   id="stop10"
   style="stop-color:#FFFFFF"
   offset="1" />
			</linearGradient>
			<path
   style="fill:url(#path3015-8_2_)"
   inkscape:connector-curvature="0"
   d="m 206.79,116.84 c 6.52,-11.61 15.15,-14.04 39.97,-11.91 25.9,2.22 48.93,25.7 74.84,20.71 24.32,-4.68 26.52,-25.7 24.44,-41.64 8.22,18.05 -2.41,48.68 -27.52,50.62 -25.32,1.95 -44.49,-20.94 -70.63,-24.9 -18.22,-2.75 -28.41,-3.3 -41.1,7.12 z"
   class="st2"
   id="path3015-8_1_" />
			<path
   inkscape:connector-curvature="0"
   d="m 321.48,122.13 c 22.31,-4.26 23.32,-20.75 22.89,-35.31 4.55,18.8 -5.97,41.96 -25.72,43.47 z"
   class="st3"
   id="path3015-9_1_" />
			<path
   inkscape:connector-curvature="0"
   d="m 289.95,115.07 c 18.37,6.11 32.37,4.44 41.18,-5.1 9.08,-9.82 9.88,-20.16 5.08,-35.02 16,31.25 -12.37,55.07 -46.26,40.12 z"
   class="st3"
   id="path3017-0_1_" />
			
				<linearGradient
   gradientTransform="matrix(2.3323,0,0,-2.3323,-1396.0282,998.4088)"
   y2="382.13199"
   x2="747.36737"
   y1="382.13199"
   x1="684.39893"
   gradientUnits="userSpaceOnUse"
   id="path3015_2_">
				<stop
   id="stop16"
   style="stop-color:#4373B8"
   offset="0" />
				<stop
   id="stop18"
   style="stop-color:#4EAEE3"
   offset="1" />
			</linearGradient>
			<path
   style="fill:url(#path3015_2_)"
   inkscape:connector-curvature="0"
   d="m 200.17,120.24 c 9.73,-11.33 21.1,-21.04 45.92,-18.91 25.9,2.22 48.93,25.7 74.84,20.71 24.32,-4.68 25.42,-22.82 24.95,-38.82 4.96,20.67 -6.5,46.14 -28.03,47.8 -25.32,1.96 -44.49,-20.94 -70.63,-24.9 -18.22,-2.75 -35.23,2.29 -47.05,14.12 z"
   class="st4"
   id="path3015_1_" />
			
				<radialGradient
   gradientUnits="userSpaceOnUse"
   gradientTransform="matrix(0.1578,0.193,0.0338,-0.0548,153.9059,715.3323)"
   r="125.7929"
   cy="8757.542"
   cx="-698.35608"
   id="path3017_2_">
				<stop
   id="stop22"
   style="stop-color:#71CAEC"
   offset="0" />
				<stop
   id="stop24"
   style="stop-color:#46A3DB"
   offset="1" />
			</radialGradient>
			<path
   style="fill:url(#path3017_2_)"
   inkscape:connector-curvature="0"
   d="m 289.77,114.93 c 18.7,5.25 33.47,4.75 42.58,-5.46 9.39,-10.52 10.22,-21.58 5.26,-37.49 16.55,33.46 -13,61.07 -47.84,42.95 z"
   class="st5"
   id="path3017_1_" />
			
				<radialGradient
   gradientUnits="userSpaceOnUse"
   gradientTransform="matrix(0.4873,0,0,-0.1542,-148.6779,818.9978)"
   r="149.2962"
   cy="4572.0483"
   cx="871.9054"
   id="path3015-1_2_">
				<stop
   id="stop28"
   style="stop-color:#90D3EE"
   offset="0" />
				<stop
   id="stop30"
   style="stop-color:#48BFEF"
   offset="1" />
			</radialGradient>
			<path
   style="fill:url(#path3015-1_2_)"
   inkscape:connector-curvature="0"
   d="m 203.46,109.14 c 13.87,-5.49 36.46,-4.63 54.53,1.26 25.29,8.24 45.24,34.11 73.1,19.58 10.66,-5.56 17.87,-23.2 17.4,-39.2 2.16,14.84 -2.96,32.27 -15.26,40.46 -26.96,17.95 -53.49,-12.42 -76.11,-19.06 -17.95,-5.27 -38.22,-6.37 -53.66,-3.04 z"
   class="st6"
   id="path3015-1_1_" />
			<path
   inkscape:connector-curvature="0"
   d="m 221.41,111.5 c 14.4,-4.17 21.57,-4.27 36.84,0.86 25.25,8.49 45.24,34.11 73.1,19.58 10.66,-5.56 18.05,-22.86 17.58,-38.86 2.16,14.84 -3.15,36.05 -15.45,44.24 -26.96,17.95 -54.04,-9.43 -76.11,-19.06 -12.06,-5.26 -20.8,-8.61 -35.96,-6.76 z"
   class="st7"
   id="path3015-1-7_1_" />
			
				<radialGradient
   gradientUnits="userSpaceOnUse"
   gradientTransform="matrix(0.4873,0,0,-0.1473,-148.6779,847.5601)"
   r="113.6525"
   cy="4794.1211"
   cx="944.14917"
   id="path3015-1-7-4_2_">
				<stop
   id="stop35"
   style="stop-color:#90D3EE"
   offset="0" />
				<stop
   id="stop37"
   style="stop-color:#3FC0F0"
   offset="1" />
			</radialGradient>
			<path
   style="fill:url(#path3015-1-7-4_2_)"
   inkscape:connector-curvature="0"
   d="m 237.45,109.81 c -3.61,0.04 0.43,0.41 2.05,0.81 16.36,3.56 31.37,14.15 46.51,23.27 13.57,7.93 29.11,13.43 43.31,5.62 8.48,-3.85 15.07,-14.46 17.44,-27.03 -3.53,11.98 -10.94,21.27 -19.69,23.94 -13.24,5.65 -27.34,0.88 -39.8,-6.76 -15.91,-9.87 -32.26,-20.15 -49.82,-19.85 z"
   class="st8"
   id="path3015-1-7-4_1_" />
			<path
   inkscape:connector-curvature="0"
   d="m 239.84,99.23 c -5.85,-0.44 -11.75,-0.08 -17.5,1.62 14.5,-2.89 29.41,-0.07 42.89,7.39 14.05,7.38 27.09,18.73 42.01,22.6 8.97,2.34 18.87,1.98 26.91,-5.01 2.89,-2.43 5.47,-5.51 7.58,-9.2 -6.06,7.54 -14.36,9.73 -22.14,10.4 -12.43,1.07 -24.4,-4.36 -35.74,-10.56 -13.53,-7.45 -27.13,-15.96 -41.91,-17.07 -0.7,-0.07 -1.4,-0.13 -2.1,-0.17 z"
   class="st0"
   id="path3015-6_1_" />
		</g>
		<rect
   id="rect43"
   height="83"
   width="17.08"
   class="st1"
   y="72.300003"
   x="251.58" />
	</g>
	<circle
   id="circle47"
   r="64.559998"
   cy="113.08"
   cx="286.01001"
   class="st9" />
</g>
</svg>
